<svg width="60" height="60" fill="none" xmlns="http://www.w3.org/2000/svg"><g clip-path="url(#clip0_8_201)"><path d="M46 0H14c-1.654 0-3 1.346-3 3s1.346 3 3 3h32c1.654 0 3-1.346 3-3s-1.346-3-3-3zm0 4H14a1.001 1.001 0 010-2h32a1 1 0 010 2zm0 50H14c-1.654 0-3 1.346-3 3s1.346 3 3 3h32c1.654 0 3-1.346 3-3s-1.346-3-3-3zm0 4H14a1.001 1.001 0 010-2h32a1 1 0 010 2z" fill="#0439AB"/><path d="M37.126 26.288C42.204 21.21 45 14.46 45 7.28V5a1 1 0 00-1-1H16a1 1 0 00-1 1v2.28c0 7.18 2.796 13.93 7.873 19.008l1.005 1.005A3.854 3.854 0 0125 30a3.857 3.857 0 01-1.121 2.707l-1.005 1.005C17.796 38.79 15 45.54 15 52.722V55a1 1 0 001 1h28a1 1 0 001-1v-2.279c0-7.18-2.796-13.93-7.874-19.009l-1.005-1.005A3.803 3.803 0 0135 30c0-1.023.398-1.984 1.12-2.707l1.006-1.005zm-2.419-.409A5.785 5.785 0 0033 30c0 1.558.606 3.021 1.707 4.121l1.005 1.005A24.72 24.72 0 0143 52.721v1.28H17v-1.28a24.722 24.722 0 017.287-17.595l1.005-1.005A5.784 5.784 0 0027 30.001a5.787 5.787 0 00-1.707-4.122l-1.005-1.005A24.72 24.72 0 0117 7.28V6h26v1.28a24.72 24.72 0 01-7.288 17.594l-1.005 1.005z" fill="#0439AB"/><path d="M38.45 16.847c-.1-.254-.445-.847-1.45-.847-5.197 0-7.512-1.113-8.43-1.777a4.274 4.274 0 00-3.933-.58 3.942 3.942 0 00-2.528 2.716c-.09.333-.106.549-.106.549-.015.197.028.41.125.583.937 1.661 2.018 3.413 3.574 4.969l1.004 1.005A7.77 7.77 0 0128.999 29a1 1 0 102 0c0-2.091.814-4.057 2.292-5.535l1.006-1.006c.247-.246.569-.55.923-.882 2.585-2.431 3.672-3.614 3.23-4.73zm-4.602 3.273c-.37.35-.708.667-.966.925l-1.006 1.006a9.822 9.822 0 00-1.878 2.618 9.815 9.815 0 00-1.878-2.618l-1.004-1.005c-1.228-1.229-2.127-2.582-3.062-4.213.247-.835.887-1.175 1.25-1.304a2.275 2.275 0 012.093.314c1.274.922 3.786 2.009 8.598 2.143-.618.696-1.588 1.61-2.147 2.134z" fill="#FFC000"/><path d="M40.931 50.922c-.25-3.242-1.55-4.588-3.054-6.148-.203-.211-.415-.43-.632-.662A6.691 6.691 0 0032.375 42h-4.75c-1.838 0-3.613.77-4.87 2.112-.216.232-.427.45-.63.661-1.506 1.56-2.805 2.907-3.055 6.15A1.001 1.001 0 0020.066 52h19.868a1 1 0 00.998-1.078zM21.206 50c.338-1.746 1.146-2.582 2.358-3.838.21-.218.428-.445.652-.684A4.681 4.681 0 0127.625 44h4.75a4.69 4.69 0 013.41 1.477c.225.242.443.467.654.686 1.21 1.256 2.017 2.092 2.358 3.837H21.206z" fill="#0439AB"/><path d="M29.97 32a1 1 0 00-1 1v1a1 1 0 102 0v-1a1 1 0 00-1-1zm0 5a1 1 0 00-1 1v1a1 1 0 102 0v-1a1 1 0 00-1-1z" fill="#FFC000"/></g><defs><clipPath id="clip0_8_201"><path fill="#fff" d="M0 0h60v60H0z"/></clipPath></defs></svg>