<svg width="62" height="84" fill="none" xmlns="http://www.w3.org/2000/svg"><path d="M59.536 1.323H2.465A1.45 1.45 0 001.018 2.86l1.565 26.092a1.45 1.45 0 001.446 1.363h53.942c.767 0 1.4-.598 1.446-1.363L60.982 2.86a1.448 1.448 0 00-1.446-1.536z" stroke="#0439AB" stroke-width="2" stroke-miterlimit="10"/><path d="M54.32 30.312H7.678v42.346h46.64V30.312z" stroke="#0439AB" stroke-width="2" stroke-miterlimit="10"/><path d="M43.15 37.343H19.178a1.122 1.122 0 01-1.113-.985l-.75-6.046h27.698l-.749 6.046a1.122 1.122 0 01-1.114.986z" stroke="#0439AB" stroke-width="2" stroke-miterlimit="10"/><path d="M35.504 42.146h-8.68a.253.253 0 01-.253-.253v-4.55h9.184v4.55a.25.25 0 01-.25.253z" stroke="#0439AB" stroke-width="2" stroke-miterlimit="10"/><path d="M3.625 72.658h54.748c.693 0 1.27.528 1.332 1.22l.632 7.121a1.337 1.337 0 01-1.332 1.457H2.993a1.338 1.338 0 01-1.332-1.457l.632-7.121c.061-.692.64-1.22 1.332-1.22z" fill="#fff" stroke="#0439AB" stroke-width="2" stroke-miterlimit="10"/><path d="M31.163 22.635a6.818 6.818 0 100-13.635 6.818 6.818 0 000 13.635z" fill="#0439AB"/><path d="M42.57 58c-2.446 0-4.428 2.015-4.428 4.5S36.769 67 42.57 67c2.447 0 4.43-2.015 4.43-4.5S45.015 58 42.57 58zm0 6.905c-3.67 0-2.366-1.076-2.366-2.405 0-1.327 1.058-2.405 2.367-2.405 1.306 0 2.367 1.076 2.367 2.405-.003 1.327-1.061 2.405-2.367 2.405z" fill="#FFC000"/><path d="M42.193 60.324c0 6.33-5.19 11.448-11.546 11.332-6.24-.114-11.122-5.467-11.122-11.708v-1.936c0-.353.286-.636.636-.636h21.394c.353 0 .636.285.636.636v2.312h.002z" fill="#fff" stroke="#FFC000" stroke-width="2" stroke-miterlimit="10"/><path d="M32.974 48.639h.023c-.192-1.797-1.345-3.8-1.805-4.54-.093-.147-.297-.124-.384.026C29.108 46.983 29 48.64 29 48.64h.03c-.004.058-.03.106-.03.16 0 1.218.897 2.201 2 2.201 1.106 0 2-.987 2-2.2.003-.058-.023-.106-.026-.161z" fill="#FFC000"/></svg>