<svg width="84" height="84" fill="none" xmlns="http://www.w3.org/2000/svg"><circle cx="22" cy="75" r="2.25" stroke="#0439AB" stroke-width="1.5"/><circle cx="35" cy="75" r="2.25" stroke="#0439AB" stroke-width="1.5"/><circle cx="48" cy="75" r="2.25" stroke="#0439AB" stroke-width="1.5"/><circle cx="61" cy="75" r="2.25" fill="#FFC000" stroke="#0439AB" stroke-width="1.5"/><path d="M33 22.5C33 28.851 27.851 34 21.5 34S10 28.851 10 22.5 15.149 11 21.5 11 33 16.149 33 22.5z" stroke="#0439AB" stroke-width="2"/><circle cx="21.5" cy="22.5" r="7" stroke="#FFC000"/><path d="M74 22.5C74 28.851 68.851 34 62.5 34S51 28.851 51 22.5 56.149 11 62.5 11 74 16.149 74 22.5z" stroke="#0439AB" stroke-width="2"/><circle cx="62.5" cy="22.5" r="7" stroke="#FFC000"/><path d="M33 53.5C33 59.851 27.851 65 21.5 65S10 59.851 10 53.5 15.149 42 21.5 42 33 47.149 33 53.5z" stroke="#0439AB" stroke-width="2"/><circle cx="21.5" cy="53.5" r="7" stroke="#FFC000"/><path d="M74 53.5C74 59.851 68.851 65 62.5 65S51 59.851 51 53.5 56.149 42 62.5 42 74 47.149 74 53.5z" stroke="#0439AB" stroke-width="2"/><circle cx="62.5" cy="53.5" r="7" stroke="#FFC000"/><path fill-rule="evenodd" clip-rule="evenodd" d="M7.7 0h68.6A7.709 7.709 0 0184 7.7v68.6a7.709 7.709 0 01-7.7 7.7H7.7A7.708 7.708 0 010 76.3V7.7A7.708 7.708 0 017.7 0zM4.237 4.237A4.906 4.906 0 002.8 7.7V14h.016v2.8H2.8v59.5a4.906 4.906 0 004.9 4.9h68.6a4.906 4.906 0 004.9-4.9V7.7a4.906 4.906 0 00-4.9-4.9H7.7a4.906 4.906 0 00-3.463 1.437z" fill="#0439AB"/></svg>