<svg width="60" height="72" fill="none" xmlns="http://www.w3.org/2000/svg"><path d="M54.5 0h-49C4.042.002 2.644.698 1.613 1.935.582 3.173.002 4.85 0 6.6v58.8c.002 1.75.582 3.427 1.613 4.665C2.643 71.302 4.042 71.998 5.5 72h49c1.458-.002 2.856-.698 3.887-1.935C59.418 68.827 59.998 67.15 60 65.4V6.6c-.002-1.75-.582-3.427-1.613-4.665C57.357.698 55.958.002 54.5 0zM2 6.6c.001-1.114.37-2.181 1.026-2.968.656-.788 1.546-1.23 2.474-1.232h49c.928.001 1.818.444 2.474 1.232.656.787 1.025 1.854 1.026 2.968V12H2V6.6zm52.5 63h-49c-.928-.001-1.818-.444-2.474-1.231C2.37 67.58 2.001 66.513 2 65.4v-51h56v51c-.001 1.114-.37 2.181-1.026 2.968-.656.788-1.546 1.23-2.474 1.232z" fill="#0439AB"/><circle cx="19.5" cy="50.5" r="12.5" stroke="#0439AB" stroke-width="2"/><path fill-rule="evenodd" clip-rule="evenodd" d="M40.5 50.5c0-6.014-4.617-10.95-10.5-11.457-.55-.047-1-.49-1-1.043 0-.552.45-1.004 1-.964 6.989.512 12.5 6.344 12.5 13.464S36.989 63.452 30 63.964c-.55.04-1-.412-1-.964s.45-.995 1-1.043c5.883-.506 10.5-5.443 10.5-11.457z" fill="#FFC000"/><path fill-rule="evenodd" clip-rule="evenodd" d="M51.5 50.5c0-6.014-4.617-10.95-10.5-11.457-.55-.047-1-.49-1-1.043 0-.552.45-1.004 1-.964 6.989.512 12.5 6.344 12.5 13.464S47.989 63.452 41 63.964c-.55.04-1-.412-1-.964s.45-.995 1-1.043c5.883-.506 10.5-5.443 10.5-11.457z" fill="#FFC000"/><path fill-rule="evenodd" clip-rule="evenodd" d="M37 7a1 1 0 01-1 1H23a1 1 0 110-2h13a1 1 0 011 1z" fill="#0439AB"/><path fill-rule="evenodd" clip-rule="evenodd" d="M29 29a1 1 0 01-1-1v-7a1 1 0 112 0v7a1 1 0 01-1 1zm10.134-3.304a1 1 0 01-1.366-.366l-2-3.464a1 1 0 011.732-1l2 3.464a1 1 0 01-.366 1.366zm-20.268 0a1 1 0 001.366-.366l2-3.464a1 1 0 00-1.732-1l-2 3.464a1 1 0 00.366 1.366z" fill="#FFC000"/><path fill-rule="evenodd" clip-rule="evenodd" d="M47 7a1 1 0 01-1 1h-3a1 1 0 110-2h3a1 1 0 011 1zM17 7a1 1 0 01-1 1h-3a1 1 0 110-2h3a1 1 0 011 1z" fill="#0439AB"/></svg>