<svg width="60" height="60" fill="none" xmlns="http://www.w3.org/2000/svg"><path d="M54.5 0h-49A5.506 5.506 0 000 5.5v49A5.507 5.507 0 005.5 60h49a5.507 5.507 0 005.5-5.5v-49A5.506 5.506 0 0054.5 0zM2 5.5A3.504 3.504 0 015.5 2h49A3.504 3.504 0 0158 5.5V10H2V5.5zM54.5 58h-49A3.504 3.504 0 012 54.5V12h56v42.5a3.504 3.504 0 01-3.5 3.5z" fill="#0439AB"/><circle cx="52" cy="6" r="2.25" stroke="#0439AB" stroke-width="1.5"/><circle cx="29.5" cy="35.5" r="13.5" stroke="#0439AB" stroke-width="2"/><circle cx="29.5" cy="35.5" r="16.75" stroke="#0439AB" stroke-width="1.5"/><mask id="a" fill="#fff"><rect x="5" y="3" width="11" height="6" rx="1"/></mask><rect x="5" y="3" width="11" height="6" rx="1" stroke="#0439AB" stroke-width="3" mask="url(#a)"/><path fill-rule="evenodd" clip-rule="evenodd" d="M24.946 37.958c.06-.236.076-.547-.012-.988-.044-.224-.251-.525-.77-1.048-.076-.078-.16-.161-.25-.25-.417-.41-.944-.93-1.316-1.498-.496-.76-.8-1.719-.442-2.862.268-.862.886-1.733 1.872-2.655.403-.377 1.037-.31 1.387.117.35.427.281 1.052-.117 1.435-.772.74-1.109 1.3-1.233 1.698-.135.431-.053.774.208 1.174.242.37.573.698.979 1.1l.335.334c.476.482 1.13 1.174 1.308 2.063.134.671.137 1.291-.01 1.873a3.714 3.714 0 01-.786 1.488c-.525.625-1.287 1.186-2.038 1.739a.669.669 0 01-.93-.134l-.311-.413a.814.814 0 01.163-1.146c.72-.532 1.227-.907 1.584-1.332.202-.24.32-.46.379-.695zm5 0c.06-.236.076-.547-.012-.988-.044-.224-.251-.525-.77-1.048-.076-.078-.16-.161-.25-.25-.417-.41-.944-.93-1.316-1.498-.496-.76-.8-1.719-.442-2.862.268-.862.886-1.733 1.872-2.655.403-.377 1.037-.31 1.387.117.35.427.281 1.052-.117 1.435-.772.74-1.109 1.3-1.233 1.698-.135.431-.053.774.208 1.174.242.37.573.698.979 1.1l.335.334c.476.482 1.13 1.174 1.308 2.063.134.671.137 1.291-.01 1.873a3.714 3.714 0 01-.786 1.488c-.525.625-1.287 1.186-2.038 1.739a.669.669 0 01-.93-.134l-.311-.413a.814.814 0 01.163-1.146c.72-.532 1.227-.907 1.584-1.332.202-.24.32-.46.379-.695zm5 0c.06-.236.076-.547-.012-.988-.044-.224-.251-.525-.77-1.048-.076-.078-.16-.161-.25-.25-.417-.41-.944-.93-1.316-1.498-.496-.76-.8-1.719-.442-2.862.269-.862.886-1.733 1.872-2.655.403-.377 1.037-.31 1.387.117.35.427.281 1.052-.117 1.435-.772.74-1.109 1.3-1.233 1.698-.135.431-.053.774.208 1.174.242.37.573.698.979 1.1.106.105.218.216.334.334.477.482 1.132 1.174 1.31 2.063.133.671.136 1.291-.012 1.873a3.714 3.714 0 01-.785 1.488c-.525.625-1.287 1.186-2.038 1.739a.669.669 0 01-.93-.134l-.311-.413a.814.814 0 01.163-1.146c.72-.532 1.227-.907 1.584-1.332.202-.24.32-.46.379-.695z" fill="#FFC000"/></svg>