<svg width="84" height="88" fill="none" xmlns="http://www.w3.org/2000/svg"><path fill-rule="evenodd" clip-rule="evenodd" d="M36.124 60.942c.084-.33.108-.767-.016-1.384-.063-.313-.352-.735-1.077-1.468a36.225 36.225 0 00-.35-.348c-.585-.575-1.323-1.302-1.843-2.099-.694-1.063-1.12-2.406-.62-4.007.377-1.207 1.24-2.425 2.621-3.716.565-.528 1.452-.435 1.942.163.49.599.394 1.474-.164 2.01-1.08 1.036-1.552 1.818-1.726 2.377-.188.604-.074 1.083.291 1.643.34.52.803.978 1.37 1.54.15.148.306.303.47.468.667.674 1.583 1.644 1.832 2.888.188.94.191 1.808-.016 2.623-.208.817-.606 1.495-1.1 2.083-.735.875-1.8 1.66-2.852 2.434a.936.936 0 01-1.302-.187l-.436-.578a1.14 1.14 0 01.23-1.605c1.006-.745 1.716-1.27 2.217-1.866.282-.335.446-.644.53-.971zm7 0c.084-.33.108-.767-.016-1.384-.063-.313-.352-.735-1.077-1.468a36.225 36.225 0 00-.35-.348c-.585-.575-1.323-1.302-1.843-2.099-.694-1.063-1.12-2.406-.62-4.007.377-1.207 1.24-2.425 2.621-3.716.565-.528 1.452-.435 1.942.163.49.599.394 1.474-.164 2.01-1.08 1.036-1.552 1.818-1.726 2.377-.188.604-.074 1.083.291 1.643.34.52.803.978 1.37 1.54.15.148.306.303.47.468.667.674 1.583 1.644 1.832 2.888.188.94.191 1.808-.016 2.623-.208.817-.606 1.495-1.1 2.083-.735.875-1.8 1.66-2.852 2.434a.936.936 0 01-1.302-.187l-.436-.578a1.14 1.14 0 01.23-1.605c1.006-.745 1.716-1.27 2.217-1.866.282-.335.446-.644.53-.971zm7 0c.084-.33.108-.767-.016-1.384-.063-.313-.352-.735-1.077-1.468a36.225 36.225 0 00-.35-.348c-.585-.575-1.323-1.302-1.843-2.099-.694-1.063-1.12-2.406-.62-4.007.377-1.207 1.24-2.425 2.621-3.716.565-.528 1.452-.435 1.942.163.49.599.394 1.474-.164 2.01-1.08 1.036-1.552 1.818-1.726 2.377-.188.604-.074 1.083.291 1.643.34.52.803.978 1.37 1.54.15.148.306.303.47.468.667.674 1.583 1.644 1.832 2.888.188.94.191 1.808-.016 2.623-.208.817-.606 1.495-1.1 2.083-.735.875-1.8 1.66-2.852 2.434a.936.936 0 01-1.302-.187l-.436-.578a1.14 1.14 0 01.23-1.605c1.006-.745 1.716-1.27 2.217-1.866.282-.335.446-.644.53-.971z" fill="#FFC000"/><path fill-rule="evenodd" clip-rule="evenodd" d="M7.7 4h68.6a7.709 7.709 0 017.7 7.7v68.6a7.709 7.709 0 01-7.7 7.7H7.7A7.708 7.708 0 010 80.3V11.7A7.708 7.708 0 017.7 4zM4.237 8.237A4.906 4.906 0 002.8 11.7V18h.016v2.8H2.8v59.5a4.906 4.906 0 004.9 4.9h68.6a4.906 4.906 0 004.9-4.9V11.7a4.906 4.906 0 00-4.9-4.9H7.7a4.906 4.906 0 00-3.463 1.437z" fill="#0439AB"/><path d="M9 3a3 3 0 013-3h19a3 3 0 013 3v3H9V3zm41 0a3 3 0 013-3h19a3 3 0 013 3v3H50V3zM1 26h81v3H1z" fill="#0439AB"/><rect x="8.5" y="38.5" width="67" height="37" rx="2.5" stroke="#0439AB" stroke-width="3"/><circle cx="10" cy="19" r="4" fill="#0439AB"/><circle cx="22" cy="19" r="4" fill="#0439AB"/><circle cx="34" cy="19" r="4" fill="#0439AB"/><circle cx="46" cy="19" r="4" fill="#0439AB"/><circle cx="74" cy="19" r="4" fill="#0439AB"/></svg>