<svg width="70" height="70" fill="none" xmlns="http://www.w3.org/2000/svg"><mask id="a" style="mask-type:luminance" maskUnits="userSpaceOnUse" x="0" y="0" width="70" height="70"><path d="M70 0H0v70h70V0z" fill="#fff"/></mask><g mask="url(#a)"><path fill-rule="evenodd" clip-rule="evenodd" d="M51.331 5.409A5.416 5.416 0 0045.922 0h-21.92a5.415 5.415 0 00-5.408 5.409v61.374A3.221 3.221 0 0021.81 70h26.303a3.22 3.22 0 003.217-3.217V5.409zm-28.424 40.48h-2.262v7.813h2.262a.07.07 0 00.07-.07v-7.673a.07.07 0 00-.07-.07zm0-18.631h-2.262v7.813h2.262a.07.07 0 00.07-.071v-7.672a.07.07 0 00-.07-.07zm25.207 40.691c.643 0 1.167-.523 1.167-1.166V41.505h-1.167a1.025 1.025 0 010-2.051h1.166V5.409a3.362 3.362 0 00-3.358-3.358h-21.92a3.362 3.362 0 00-3.357 3.358v19.798h2.262c1.17 0 2.121.952 2.121 2.122V35c0 1.17-.951 2.12-2.121 2.12h-2.262v2.334H43.73a1.026 1.026 0 010 2.05H20.645v2.333h2.262c1.17 0 2.121.952 2.121 2.121v7.672c0 1.17-.951 2.121-2.121 2.121h-2.262v11.03c0 .644.523 1.167 1.166 1.167h26.303z" fill="#0439AB"/><path d="M37.155 8.768h-4.384c-1.17 0-2.12.951-2.12 2.121v2.192c0 1.17.95 2.121 2.12 2.121h4.384c1.17 0 2.122-.951 2.122-2.121v-2.192c0-1.17-.952-2.121-2.122-2.121zm.07 4.313a.07.07 0 01-.07.07h-4.384a.07.07 0 01-.07-.07v-2.192a.07.07 0 01.07-.07h4.384a.07.07 0 01.07.07v2.192z" fill="#0439AB"/><path d="M61.612 20.932c7.733 7.75 7.733 20.298 0 28.048a1.167 1.167 0 001.65 1.65c8.643-8.662 8.643-22.686 0-31.348a1.167 1.167 0 00-1.65 1.65z" fill="#FFC000"/><path d="M56.663 25.882c5.003 5.015 5.003 13.134 0 18.149a1.167 1.167 0 001.65 1.65c5.913-5.927 5.913-15.522 0-21.45a1.166 1.166 0 10-1.65 1.65zM8.436 48.98c-7.734-7.75-7.734-20.298 0-28.048a1.167 1.167 0 10-1.65-1.65c-8.643 8.662-8.643 22.686 0 31.348a1.167 1.167 0 101.65-1.65z" fill="#FFC000"/><path d="M13.385 44.03c-5.004-5.014-5.004-13.133 0-18.148a1.167 1.167 0 00-1.65-1.65c-5.913 5.927-5.913 15.522 0 21.449a1.166 1.166 0 101.65-1.65z" fill="#FFC000"/></g></svg>