<svg width="23" height="23" fill="none" xmlns="http://www.w3.org/2000/svg"><path d="M11.5.125a8.377 8.377 0 00-8.37 8.37c0 1.468.637 3.049.712 3.224.278.628.601 1.236.968 1.818l5.828 8.82c.212.33.525.518.862.518.337 0 .65-.187.862-.518l5.828-8.82c.368-.581.692-1.189.968-1.818.075-.175.712-1.75.712-3.224A8.377 8.377 0 0011.5.125zm6.965 11.3a12.33 12.33 0 01-.906 1.7l-5.822 8.826c-.056.075-.124.18-.237.18-.112 0-.187-.105-.237-.18l-5.828-8.827a13.054 13.054 0 01-.906-1.699c-.025-.062-.65-1.587-.65-2.93A7.627 7.627 0 0111.5.875c4.198 0 7.62 3.416 7.62 7.62 0 1.368-.649 2.918-.655 2.93z" fill="#FFC000"/><path d="M11.5 4.123a4.373 4.373 0 104.373 4.372A4.378 4.378 0 0011.5 4.123zm0 7.995a3.623 3.623 0 110-7.246 3.623 3.623 0 010 7.246z" fill="#FFC000"/></svg>