<svg width="90" height="61" fill="none" xmlns="http://www.w3.org/2000/svg"><rect x="1" y="1" width="88" height="59" rx="6" stroke="#0439AB" stroke-width="2"/><rect x="9" y="10" width="53" height="43" rx="6" stroke="#0439AB" stroke-width="2"/><path fill="#0439AB" d="M71 0h2v60h-2z"/><path fill-rule="evenodd" clip-rule="evenodd" d="M29.125 35.942c.084-.33.107-.767-.017-1.384-.063-.313-.352-.735-1.077-1.468a36.225 36.225 0 00-.35-.348c-.585-.575-1.323-1.302-1.843-2.099-.694-1.063-1.12-2.406-.62-4.007.377-1.206 1.24-2.425 2.621-3.716.565-.528 1.452-.435 1.942.163.49.599.394 1.474-.164 2.01-1.08 1.037-1.552 1.818-1.726 2.378-.188.603-.074 1.082.291 1.642.34.52.803.978 1.37 1.54.15.148.306.303.47.468.667.674 1.583 1.644 1.832 2.888.188.94.191 1.808-.016 2.623-.208.817-.606 1.495-1.1 2.083-.735.875-1.8 1.66-2.852 2.434a.936.936 0 01-1.302-.187l-.436-.578a1.14 1.14 0 01.23-1.605c1.006-.745 1.716-1.27 2.217-1.866.282-.335.446-.644.53-.971zm6.999 0c.084-.33.108-.767-.016-1.384-.063-.313-.352-.735-1.077-1.468a36.225 36.225 0 00-.35-.348c-.585-.575-1.323-1.302-1.843-2.099-.694-1.063-1.12-2.406-.62-4.007.377-1.206 1.24-2.425 2.621-3.716.565-.528 1.452-.435 1.942.163.49.599.394 1.474-.164 2.01-1.08 1.037-1.552 1.818-1.726 2.378-.188.603-.074 1.082.291 1.642.34.52.803.978 1.37 1.54.15.148.306.303.47.468.667.674 1.583 1.644 1.832 2.888.188.94.191 1.808-.016 2.623-.208.817-.606 1.495-1.1 2.083-.735.875-1.8 1.66-2.852 2.434a.936.936 0 01-1.302-.187l-.436-.578a1.14 1.14 0 01.23-1.605c1.006-.745 1.716-1.27 2.217-1.866.282-.335.446-.644.53-.971zm7 0c.084-.33.108-.767-.016-1.384-.063-.313-.352-.735-1.077-1.468a36.225 36.225 0 00-.35-.348c-.585-.575-1.323-1.302-1.843-2.099-.694-1.063-1.12-2.406-.62-4.007.377-1.206 1.24-2.425 2.621-3.716.565-.528 1.452-.435 1.942.163.49.599.394 1.474-.164 2.01-1.08 1.037-1.552 1.818-1.726 2.378-.188.603-.074 1.082.291 1.642.34.52.803.978 1.37 1.54.15.148.306.303.47.468.667.674 1.583 1.644 1.832 2.888.188.94.191 1.808-.016 2.623-.208.817-.606 1.495-1.1 2.083-.735.875-1.8 1.66-2.852 2.434a.936.936 0 01-1.302-.187l-.436-.578a1.14 1.14 0 01.23-1.605c1.006-.745 1.716-1.27 2.217-1.866.282-.335.446-.644.53-.971z" fill="#FFC000"/><circle cx="80.5" cy="49.5" r="3.5" stroke="#FFC000" stroke-width="2"/><rect x="77" y="10" width="7" height="20" rx="1" stroke="#0439AB" stroke-width="2"/></svg>