<svg width="84" height="84" fill="none" xmlns="http://www.w3.org/2000/svg"><path d="M44.797 48.563a1.312 1.312 0 00-2.625 0c0 .819-.31 1.173-.824 1.76-.621.71-1.473 1.684-1.473 3.49 0 1.805.852 2.778 1.473 3.489.514.587.824.941.824 1.76a1.312 1.312 0 102.625 0c0-1.805-.852-2.778-1.473-3.489-.514-.587-.824-.941-.824-1.76 0-.82.31-1.174.824-1.761.621-.71 1.473-1.684 1.473-3.49zm7.875 0a1.312 1.312 0 00-2.625 0c0 .819-.31 1.173-.824 1.76-.621.71-1.473 1.684-1.473 3.49 0 1.805.852 2.778 1.473 3.489.514.587.824.941.824 1.76a1.312 1.312 0 102.625 0c0-1.805-.852-2.778-1.473-3.489-.514-.587-.824-.941-.824-1.76 0-.82.31-1.174.824-1.761.621-.71 1.473-1.684 1.473-3.49zm-15.75 0a1.312 1.312 0 00-2.625 0c0 .819-.31 1.173-.824 1.76-.621.71-1.473 1.684-1.473 3.49 0 1.805.852 2.778 1.473 3.489.514.587.824.941.824 1.76a1.312 1.312 0 102.625 0c0-1.805-.852-2.778-1.473-3.489-.514-.587-.824-.941-.824-1.76 0-.82.31-1.174.824-1.761.621-.71 1.473-1.684 1.473-3.49z" fill="#FFC000"/><path d="M72.188 23.625H11.812a1.312 1.312 0 00-1.312 1.313v47.25a1.312 1.312 0 001.313 1.312h60.374a1.311 1.311 0 001.313-1.313v-47.25a1.311 1.311 0 00-1.313-1.312zm-1.313 47.25h-57.75V26.25h57.75v44.625z" fill="#0439AB"/><path d="M74.156 2.625H9.844a7.227 7.227 0 00-7.219 7.219v64.312a7.227 7.227 0 007.219 7.219h64.312a7.227 7.227 0 007.219-7.219V9.844a7.227 7.227 0 00-7.219-7.219zM5.25 9.844A4.6 4.6 0 019.844 5.25h64.312a4.6 4.6 0 014.594 4.594v5.906H5.25V9.844zM74.156 78.75H9.844a4.6 4.6 0 01-4.594-4.594V18.375h73.5v55.781a4.6 4.6 0 01-4.594 4.594z" fill="#0439AB"/><path d="M19.686 42H64.31a3.937 3.937 0 001.312-7.65v-4.163a1.312 1.312 0 00-1.312-1.312h-5.25a1.312 1.312 0 00-1.313 1.313v3.937h-31.5v-3.938a1.312 1.312 0 00-1.312-1.312h-5.25a1.312 1.312 0 00-1.313 1.313v4.163A3.938 3.938 0 0019.686 42zm40.687-10.5h2.625v2.625h-2.625V31.5zm-39.375 0h2.625v2.625h-2.625V31.5zm-1.312 5.25H64.31a1.312 1.312 0 110 2.625H19.686a1.312 1.312 0 110-2.625zM14.438 6.563a3.937 3.937 0 100 7.874 3.937 3.937 0 000-7.874zm0 5.25a1.313 1.313 0 110-2.626 1.313 1.313 0 010 2.626z" fill="#0439AB"/><path d="M53.938 65.625H30.311a1.311 1.311 0 100 2.625h23.625a1.311 1.311 0 100-2.625z" fill="#FFC000"/></svg>