<svg width="34" height="34" fill="none" xmlns="http://www.w3.org/2000/svg"><g clip-path="url(#clip0_2_20)" fill="#FFC000"><path d="M32.2 25.103l-6.366-4.249a2.41 2.41 0 00-3.207.525l-1.86 2.39a.266.266 0 01-.351.066l-.345-.186c-1.136-.617-2.543-1.38-5.445-4.282-2.9-2.902-3.664-4.309-4.275-5.438l-.193-.358h-.006a.279.279 0 01.073-.345h.006l2.384-1.86a2.404 2.404 0 00.524-3.2h-.006l-4.25-6.373A2.357 2.357 0 006.905.73a2.33 2.33 0 00-1.228.346l-2.656 1.6a4.203 4.203 0 00-1.945 2.53C.073 8.835.79 15.064 9.859 24.14c3.294 3.293 6.454 5.723 9.395 7.23 2.463 1.261 4.794 1.892 6.925 1.892h.04c.865 0 1.727-.114 2.563-.339a4.302 4.302 0 002.542-1.958l1.6-2.663a2.358 2.358 0 00-.723-3.2zm-2.695 4.794H29.5a2.105 2.105 0 01-1.275.99 7.681 7.681 0 01-2.065.265c-4.183 0-9.169-2.862-14.812-8.512-3.771-3.764-6.328-7.29-7.59-10.463C2.809 9.8 2.59 7.642 3.102 5.77a2.197 2.197 0 01.996-1.288l2.675-1.607h.007a.206.206 0 01.133-.033.259.259 0 01.225.12l2.31 3.465 1.94 2.908a.28.28 0 01-.06.372l-2.384 1.852a2.383 2.383 0 00-.624 3.034l.186.339c.684 1.255 1.534 2.822 4.64 5.922 3.108 3.1 4.648 3.937 5.903 4.628h.014l.345.192a2.37 2.37 0 003.027-.624l1.846-2.383a.272.272 0 01.22-.093.291.291 0 01.152.04l6.367 4.249a.28.28 0 01.086.372l-1.6 2.662zm.086-14.474a1.056 1.056 0 01-2.11 0c0-4.614-3.765-8.385-8.386-8.385a1.055 1.055 0 110-2.112 10.503 10.503 0 0110.497 10.497z"/><path d="M26.445 15.423a1.057 1.057 0 01-1.8.752 1.055 1.055 0 01-.312-.745c-.006-2.888-2.357-5.245-5.238-5.252a1.055 1.055 0 110-2.111 7.37 7.37 0 017.35 7.356z"/><path d="M23.297 15.423a1.056 1.056 0 01-2.11 0 2.098 2.098 0 00-2.092-2.091 1.056 1.056 0 010-2.112 4.21 4.21 0 014.202 4.203z"/></g><defs><clipPath id="clip0_2_20"><path fill="#fff" d="M0 0h34v34H0z"/></clipPath></defs></svg>