<svg width="19" height="21" fill="none" xmlns="http://www.w3.org/2000/svg"><path d="M9.704 16.02v-.998a4.65 4.65 0 01.49-2.087c.32-.64.79-1.15 1.412-1.532.621-.388 1.376-.582 2.262-.582.905 0 1.665.19 2.28.572a3.723 3.723 0 011.413 1.533c.32.634.477 1.333.47 2.096v.997a4.465 4.465 0 01-.48 2.096 3.737 3.737 0 01-1.412 1.524c-.621.387-1.379.581-2.271.581-.899 0-1.659-.194-2.28-.581a3.757 3.757 0 01-1.404-1.524 4.786 4.786 0 01-.48-2.096zM0 5.197V4.2a4.67 4.67 0 01.49-2.096A3.806 3.806 0 011.901.572C2.524.191 3.275 0 4.155 0c.91 0 1.674.19 2.29.572a3.722 3.722 0 011.412 1.533 4.5 4.5 0 01.471 2.096v.997a4.432 4.432 0 01-.48 2.096 3.737 3.737 0 01-1.413 1.523c-.621.376-1.381.564-2.28.564-.899 0-1.656-.191-2.271-.573A3.756 3.756 0 01.48 7.285 4.726 4.726 0 010 5.198zm.905 14.367l13-18.91h2.41l-13 18.91H.905zm11.486-4.543v.997c.006.437.114.85.323 1.237.209.388.594.582 1.154.582.566 0 .95-.19 1.154-.572.21-.382.31-.797.305-1.247v-.997a2.619 2.619 0 00-.287-1.256c-.196-.387-.587-.581-1.172-.581-.554 0-.939.194-1.154.581-.21.382-.317.8-.323 1.256zM2.705 4.201v.997c.006.45.114.865.323 1.247.21.381.585.572 1.127.572.566 0 .954-.19 1.163-.572.21-.382.311-.798.305-1.247v-.997a2.555 2.555 0 00-.296-1.256c-.197-.387-.587-.581-1.172-.581-.548 0-.927.197-1.136.59a2.77 2.77 0 00-.314 1.247z" fill="#FFC000"/></svg>