<svg width="60" height="60" fill="none" xmlns="http://www.w3.org/2000/svg"><g clip-path="url(#clip0_8_209)"><mask id="a" style="mask-type:luminance" maskUnits="userSpaceOnUse" x="0" y="0" width="60" height="60"><path d="M60 0H0v60h60V0z" fill="#fff"/></mask><g mask="url(#a)"><path d="M44.75 26.16a.88.88 0 001.038-.687 16.32 16.32 0 00.328-3.257c0-8.913-7.23-16.164-16.116-16.164s-16.115 7.251-16.115 16.164c0 8.912 7.23 16.164 16.115 16.164 6.057 0 11.547-3.356 14.328-8.758a.883.883 0 00-.378-1.188.878.878 0 00-1.184.379c-2.478 4.813-7.37 7.803-12.766 7.803-7.916 0-14.357-6.46-14.357-14.4 0-7.941 6.44-14.401 14.357-14.401 7.917 0 14.358 6.46 14.358 14.4 0 .979-.098 1.955-.292 2.904a.882.882 0 00.685 1.04z" fill="#0439AB"/><path d="M39.78 18.937a.88.88 0 00-.712-.6l-5.729-.823-2.55-5.211c-.292-.648-1.288-.648-1.579 0l-2.55 5.21-5.73.823c-.704.078-1.01 1.029-.487 1.506l4.152 4.043-.99 5.72c-.144.694.66 1.282 1.277.93L30 27.823l5.117 2.712c.616.352 1.421-.236 1.277-.93l-.99-5.72 4.153-4.043a.883.883 0 00.223-.905zm-5.934 4.008a.884.884 0 00-.254.783l.763 4.41-3.945-2.091a.877.877 0 00-.821 0l-3.945 2.09.763-4.409a.883.883 0 00-.254-.783l-3.201-3.118 4.416-.634a.879.879 0 00.665-.484l1.966-4.017 1.966 4.017a.88.88 0 00.665.484l4.416.634-3.2 3.118z" fill="#FFC000"/><path d="M54.667 52.407l-8.591-14.925a22.172 22.172 0 006.073-15.266C52.149 9.966 42.213 0 29.999 0a22.11 22.11 0 00-10.735 2.78.883.883 0 00-.342 1.199.877.877 0 001.195.342A20.357 20.357 0 0130 1.763c11.243 0 20.39 9.175 20.39 20.453 0 11.277-9.147 20.452-20.39 20.452-11.244 0-20.39-9.175-20.39-20.452 0-6.05 2.649-11.757 7.269-15.656a.884.884 0 00.106-1.243.877.877 0 00-1.238-.107A22.207 22.207 0 007.85 22.216c0 5.917 2.319 11.3 6.092 15.286L11.51 41.73c-.583.979.96 1.884 1.522.882l2.212-3.843a22.098 22.098 0 009.417 5.01l-7.585 13.177-1.94-6.125a.879.879 0 00-1.027-.594L7.85 51.613l3.131-5.439a.883.883 0 00-.322-1.204.878.878 0 00-1.2.323L5.332 52.46c-.391.63.23 1.486.95 1.303l7.42-1.634 2.301 7.263c.201.715 1.248.831 1.6.174l8.874-15.418a22.145 22.145 0 007.074-.004l5.33 9.26a.878.878 0 001.2.322.883.883 0 00.322-1.204l-5.037-8.752a22.099 22.099 0 009.41-5.021l7.373 12.81-6.259-1.378a.879.879 0 00-1.026.594l-1.94 6.125-.47-.815a.877.877 0 00-1.2-.323.883.883 0 00-.322 1.205l1.465 2.545c.351.657 1.398.54 1.599-.174l2.3-7.262 7.422 1.633c.72.182 1.34-.673.95-1.303z" fill="#0439AB"/></g></g><defs><clipPath id="clip0_8_209"><path fill="#fff" d="M0 0h60v60H0z"/></clipPath></defs></svg>