<svg width="60" height="60" fill="none" xmlns="http://www.w3.org/2000/svg"><path d="M54.5 0h-49A5.506 5.506 0 000 5.5v49A5.507 5.507 0 005.5 60h49a5.507 5.507 0 005.5-5.5v-49A5.506 5.506 0 0054.5 0zM2 5.5A3.504 3.504 0 015.5 2h49A3.504 3.504 0 0158 5.5V10H2V5.5zM54.5 58h-49A3.504 3.504 0 012 54.5V12h56v42.5a3.504 3.504 0 01-3.5 3.5z" fill="#0439AB"/><circle cx="52" cy="6" r="2.25" stroke="#0439AB" stroke-width="1.5"/><circle cx="29.5" cy="35.5" r="13.5" stroke="#0439AB" stroke-width="2"/><path fill-rule="evenodd" clip-rule="evenodd" d="M21.6 41c.338-.239.804-.156 1.072.16 1.6 1.878 4.058 3.09 6.828 3.09 2.77 0 5.228-1.212 6.828-3.09.268-.316.734-.399 1.072-.16.339.239.421.71.157 1.028C35.676 44.3 32.76 45.75 29.5 45.75c-3.26 0-6.176-1.45-8.057-3.722-.264-.319-.181-.789.157-1.028z" fill="#FFC000"/><path fill-rule="evenodd" clip-rule="evenodd" d="M25.752 40.228a.767.767 0 011.096-.332C27.724 40.42 28.864 41 29.9 41c1.01 0 2.231-.553 3.075-1.067.375-.23.892-.103 1.074.297a.68.68 0 01-.293.876c-1.178.65-2.497 1.394-3.856 1.394-1.33 0-2.836-.711-3.88-1.352a.723.723 0 01-.269-.92z" fill="#FFC000"/><circle cx="29.5" cy="35.5" r="16.75" stroke="#0439AB" stroke-width="1.5"/><mask id="a" fill="#fff"><rect x="5" y="3" width="11" height="6" rx="1"/></mask><rect x="5" y="3" width="11" height="6" rx="1" stroke="#0439AB" stroke-width="3" mask="url(#a)"/></svg>