<?xml version="1.0" standalone="no"?>
<!DOCTYPE svg PUBLIC "-//W3C//DTD SVG 20010904//EN"
 "http://www.w3.org/TR/2001/REC-SVG-20010904/DTD/svg10.dtd">
<svg version="1.0" xmlns="http://www.w3.org/2000/svg"
 width="832.000000pt" height="832.000000pt" viewBox="0 0 832.000000 832.000000"
 preserveAspectRatio="xMidYMid meet">
<metadata>
Created by potrace 1.14, written by Peter Selinger 2001-2017
</metadata>
<g transform="translate(0.000000,832.000000) scale(0.100000,-0.100000)"
fill="#000000" stroke="none">
<path d="M2487 8194 c-1 -1 -38 -4 -82 -7 -79 -6 -95 -8 -185 -28 -211 -46
-447 -186 -600 -355 -80 -88 -200 -274 -200 -310 0 -8 -4 -14 -8 -14 -4 0 -13
-17 -19 -37 -77 -255 -77 -254 -78 -568 l0 -250 2815 0 2815 -1 -1 236 c-1
247 -5 300 -33 420 -49 214 -166 420 -328 576 -72 70 -211 174 -232 174 -6 0
-11 4 -11 9 0 5 -10 13 -22 17 -13 4 -50 19 -83 34 -67 31 -147 60 -185 66
-49 9 -65 12 -65 14 0 3 -43 9 -114 16 -88 8 -1249 9 -1257 2 -3 -3 -6 -147
-7 -319 l-2 -314 -477 -2 -478 -2 -1 27 c0 15 0 159 0 320 l0 292 -32 1 c-59
1 -1129 4 -1130 3z"/>
<path d="M2880 6156 c-4 -12 -4 -33 1 -48 4 -16 5 -28 1 -28 -8 0 -7 -68 1
-76 3 -3 2 -16 -3 -28 -4 -13 -4 -29 0 -36 5 -8 5 -21 0 -30 -5 -9 -5 -22 0
-30 5 -8 5 -21 0 -30 -5 -9 -5 -22 0 -30 4 -7 6 -18 4 -25 -8 -20 -10 -185 -2
-185 4 0 3 -13 -2 -30 -5 -17 -5 -30 0 -30 5 0 5 -13 0 -30 -5 -17 -5 -30 0
-30 5 0 5 -13 0 -30 -5 -17 -5 -30 0 -30 5 0 5 -13 0 -29 -4 -15 -4 -34 0 -42
5 -7 5 -20 0 -29 -5 -9 -5 -22 0 -30 5 -8 5 -21 0 -30 -5 -9 -5 -22 0 -30 5
-8 5 -21 0 -31 -5 -9 -6 -19 -3 -23 8 -7 7 -105 0 -113 -3 -3 -2 -16 3 -29 5
-13 5 -26 1 -29 -5 -3 -5 -21 -1 -40 4 -19 5 -35 1 -35 -8 0 -6 -183 2 -204 4
-9 2 -16 -3 -16 -5 0 -5 -13 0 -30 5 -17 5 -32 0 -35 -6 -3 -5 -16 0 -29 5
-13 6 -27 3 -30 -3 -3 -6 -17 -7 -31 -1 -20 -29 -47 -136 -131 -74 -58 -148
-115 -163 -127 -15 -12 -33 -26 -40 -32 -7 -5 -33 -27 -59 -48 -42 -34 -46
-39 -33 -55 8 -9 48 -62 89 -117 42 -55 83 -109 92 -120 9 -11 32 -43 52 -72
21 -29 39 -52 42 -52 4 0 60 42 256 197 69 54 334 259 364 282 18 14 43 33 54
43 22 18 208 163 266 207 37 28 237 184 260 203 8 7 33 26 55 42 22 16 42 32
45 36 4 4 82 65 205 159 71 54 252 195 285 222 19 16 40 32 45 36 9 6 225 174
250 195 6 4 35 27 65 50 31 23 62 48 70 54 8 7 49 39 90 70 41 32 82 63 90 70
8 7 94 73 190 147 96 75 182 141 190 149 8 7 56 44 105 82 50 38 92 72 95 76
3 3 16 12 28 18 13 7 21 16 17 19 -4 4 -648 7 -1432 8 l-1425 0 -8 -20z"/>
<path d="M5319 5237 c-25 -18 -52 -38 -60 -45 -8 -7 -68 -53 -134 -103 -66
-49 -131 -98 -145 -109 -14 -10 -133 -100 -265 -199 -132 -100 -250 -189 -261
-199 -12 -9 -34 -26 -49 -37 -16 -11 -34 -26 -41 -32 -7 -7 -17 -13 -23 -13
-6 0 -11 -3 -11 -7 0 -5 -17 -19 -37 -33 -21 -14 -44 -31 -53 -38 -13 -12
-211 -162 -282 -214 -13 -9 -32 -24 -43 -33 -11 -9 -83 -63 -160 -121 -77 -58
-147 -110 -155 -117 -8 -7 -33 -26 -55 -42 -22 -17 -46 -35 -55 -42 -8 -6 -53
-40 -100 -76 -47 -35 -164 -123 -260 -197 -96 -73 -192 -145 -212 -159 -35
-24 -48 -56 -38 -96 1 -5 2 -16 1 -22 0 -7 -1 -21 -1 -30 0 -10 0 -38 -1 -63
-1 -25 -1 -51 0 -57 1 -13 1 -33 1 -55 -1 -7 1 -32 2 -56 2 -23 0 -42 -3 -42
-3 0 -4 -12 -1 -28 4 -28 5 -27 -191 -193 -16 -13 -40 -34 -54 -47 -15 -12
-51 -44 -81 -70 -123 -105 -116 -96 -103 -119 6 -12 17 -27 24 -35 7 -7 53
-62 102 -123 49 -60 95 -116 102 -123 7 -7 19 -22 27 -34 15 -20 18 -19 138
73 68 51 150 113 183 139 33 25 62 47 65 50 3 3 41 32 85 65 44 33 82 62 85
65 3 3 21 17 40 30 19 13 37 27 40 30 5 5 92 72 250 191 46 35 91 69 100 76 8
7 33 26 55 42 22 17 45 34 50 39 6 4 37 28 70 52 33 25 62 47 65 51 3 3 32 25
64 49 33 24 67 49 75 56 9 8 63 49 121 93 58 44 114 87 125 96 11 8 56 43 100
76 44 33 91 70 105 80 99 76 364 278 386 294 15 11 60 46 100 78 41 31 78 57
84 57 5 0 10 4 10 8 0 4 39 36 86 71 47 35 92 70 99 77 7 8 18 14 23 14 6 0
12 4 14 8 2 4 68 57 148 117 80 61 147 112 150 115 3 3 41 32 85 65 44 33 88
68 99 77 18 16 14 23 -124 207 -123 164 -145 189 -159 179 -50 -38 -117 -94
-123 -103 -18 -24 -23 24 -22 219 0 113 -2 206 -5 206 -3 -1 -27 -15 -52 -33z"/>
<path d="M5348 3631 c-19 -18 -28 -26 -83 -66 -22 -17 -51 -40 -65 -52 -14
-13 -28 -23 -32 -23 -3 0 -13 -6 -20 -13 -7 -7 -40 -33 -73 -57 -33 -24 -66
-50 -73 -57 -7 -7 -17 -13 -20 -13 -4 0 -18 -10 -32 -23 -14 -12 -59 -47 -100
-77 -41 -30 -82 -60 -90 -67 -53 -45 -131 -103 -139 -103 -5 0 -11 -4 -13 -8
-1 -4 -149 -118 -328 -252 -179 -135 -327 -247 -330 -250 -3 -3 -59 -46 -125
-95 -356 -268 -451 -340 -460 -348 -5 -4 -93 -71 -195 -148 -321 -242 -295
-219 -295 -262 0 -20 3 -37 6 -37 4 0 3 -16 -1 -35 -4 -19 -4 -35 0 -35 5 0 5
-13 0 -30 -5 -17 -5 -30 0 -30 5 0 5 -13 0 -30 -5 -17 -5 -30 0 -30 5 0 5 -13
0 -30 -5 -17 -5 -30 0 -30 5 0 5 -13 0 -30 -5 -16 -5 -30 -1 -30 4 0 5 -16 3
-35 -2 -19 -8 -35 -12 -35 -7 0 -100 -70 -127 -96 -7 -7 -42 -34 -78 -60 -36
-26 -65 -51 -65 -56 0 -4 -4 -8 -10 -8 -9 0 -32 -16 -64 -45 -6 -6 -28 -23
-48 -39 -21 -16 -38 -34 -38 -40 0 -7 16 -31 35 -53 19 -23 35 -46 35 -51 0
-6 4 -12 8 -14 8 -3 85 -102 107 -136 6 -9 15 -21 20 -27 13 -16 58 -74 67
-88 4 -7 11 -8 20 0 7 5 103 79 213 164 110 84 206 159 213 166 7 7 16 13 20
13 4 0 21 13 39 28 60 52 73 62 82 62 5 0 11 3 13 8 2 4 32 30 68 57 36 28 67
52 70 55 3 3 23 18 45 35 22 16 42 32 45 35 3 3 21 17 40 30 19 13 37 27 40
30 6 6 174 138 315 245 50 38 92 71 95 74 3 3 41 33 84 66 43 33 85 65 92 73
8 7 14 11 14 8 0 -6 30 17 64 49 11 11 37 32 56 45 19 14 99 74 177 135 78 60
153 119 168 129 14 11 36 28 48 38 34 28 39 32 82 63 22 17 42 32 45 36 3 3
32 25 65 50 33 24 62 46 65 49 3 3 43 35 90 70 47 36 90 70 96 75 7 6 53 42
104 80 51 39 101 78 112 88 10 9 20 17 23 17 3 0 14 8 24 18 11 9 39 32 63 49
63 48 302 233 312 243 5 5 -54 93 -135 200 l-143 192 -75 -76 c-40 -42 -76
-74 -79 -71 -3 3 -6 100 -6 214 -1 115 -3 211 -6 214 -3 2 -13 -3 -22 -12z"/>
<path d="M5350 2032 c-8 -10 -33 -31 -55 -47 -46 -34 -72 -55 -90 -72 -8 -7
-16 -13 -20 -13 -4 0 -12 -6 -20 -12 -15 -15 -17 -16 -220 -172 -82 -64 -167
-129 -187 -146 -21 -17 -40 -31 -43 -30 -3 0 -13 -8 -23 -18 -9 -9 -53 -44
-97 -77 -44 -33 -82 -62 -85 -65 -3 -3 -23 -19 -45 -35 -22 -17 -42 -32 -45
-36 -6 -6 -164 -128 -194 -149 -17 -12 -129 -98 -186 -143 -8 -7 -53 -41 -100
-77 -46 -36 -92 -72 -101 -80 -9 -8 -76 -60 -148 -114 -72 -55 -131 -102 -131
-106 0 -4 78 -67 173 -141 94 -73 178 -138 185 -144 7 -5 21 -17 31 -25 10 -8
25 -19 34 -25 8 -5 44 -33 80 -61 l64 -52 144 110 c79 60 146 114 147 119 2 5
8 9 12 9 7 0 174 125 265 198 6 4 49 38 97 74 48 36 97 75 109 87 13 12 26 21
30 21 4 0 14 6 21 13 7 7 92 73 188 147 96 74 177 138 178 142 2 5 8 8 14 8 5
0 17 7 26 17 15 15 17 60 17 455 1 241 -2 443 -5 448 -3 5 -12 1 -20 -8z"/>
</g>
</svg>
