<svg width="165" height="74" fill="none" xmlns="http://www.w3.org/2000/svg"><path d="M0 73.615V0h48.632v13.042h-33.29v17.39h30.105v13.041H15.342v30.142H0zm128.526-55.067l10.132 19.419 10.421-19.419h15.632l-15.922 27.534L165 73.614h-15.632l-10.71-18.839-10.711 18.839h-15.921l16.5-27.533-15.921-27.534h15.921zM96.974 1.159H86.553v5.796h-8.685V1.16h-10.42a10.699 10.699 0 00-7.574 3.14 10.724 10.724 0 00-3.137 7.583v3.478h50.947v-3.478c0-2.844-1.128-5.571-3.137-7.582a10.704 10.704 0 00-7.573-3.141zm-2.027 43.764L93.5 46.372v-4.057L70.92 59.413v4.057l-4.053 3.189 2.606 3.478L97.553 48.4l-2.606-3.478zm0-14.492l-1.447 1.16v-4.058l-22.579 17.1v4.057l-4.053 3.478 2.606 3.188L97.553 33.91l-2.606-3.478zM77 69.558l5.21 4.058L93.5 64.92v-8.115L77 69.558zm-6.079-50.139v14.78l-4.053 3.189 2.606 3.478 27.5-21.447H70.92z" fill="#fff"/></svg>