<svg width="57" height="26" fill="none" xmlns="http://www.w3.org/2000/svg"><path d="M0 25.4V0h16.8v4.5H5.3v6h10.4V15H5.3v10.4H0zm44.4-19l3.5 6.7 3.6-6.7h5.4l-5.5 9.5 5.6 9.5h-5.4l-3.7-6.5-3.7 6.5h-5.5l5.7-9.5-5.5-9.5h5.5zM33.5.4h-3.6v2h-3v-2h-3.6a3.7 3.7 0 00-3.7 3.7v1.2h17.6V4.1A3.7 3.7 0 0033.5.4zm-.7 15.1l-.5.5v-1.4l-7.8 5.9v1.4L23.1 23l.9 1.2 9.7-7.5-.9-1.2zm0-5l-.5.4V9.5l-7.8 5.9v1.4L23.1 18l.9 1.1 9.7-7.4-.9-1.2zM26.6 24l1.8 1.4 3.9-3v-2.8L26.6 24zM24.5 6.7v5.1l-1.4 1.1.9 1.2 9.5-7.4h-9z" fill="#0439AB"/></svg>