<svg width="96" height="58" fill="none" xmlns="http://www.w3.org/2000/svg"><path d="M24.714 56.432l-.004 1h.004v-1zM4.413 14.244l-.907-.422-.001.003.908.42zm7.977-9.179l-.518-.855-.002.001.52.854zm24.648.026l-.522.853.003.002.519-.855zm10.79 23.83l-1-.003v.003h1zM37.011 53.184l.532.846h.001l-.533-.846zM30.748 41.04l-.852-.525v.002l.852.523zm-.026-23.932l-.849.529.003.004.846-.533zM16.327 28.921l-1-.007v.003l1 .003zm2.327 12.119l-.854.52.004.007.85-.527zm6.063 14.392c-4.599-.017-8.517-1.078-11.794-3.144l-1.067 1.691c3.644 2.298 7.942 3.435 12.854 3.453l.007-2zm-11.794-3.144C9.645 50.22 7.1 47.234 5.297 43.284l-1.82.83c1.947 4.266 4.738 7.57 8.38 9.865l1.066-1.691zm-7.626-9.004C3.496 39.337 2.583 34.56 2.6 28.924l-2-.006c-.017 5.85.928 10.926 2.877 15.196l1.82-.83zM2.6 28.924c.017-5.66.938-10.401 2.72-14.26l-1.815-.839C1.57 18.011.617 23.054.6 28.918l2 .005zm2.72-14.258c1.8-3.863 4.333-6.764 7.59-8.748L11.87 4.21c-3.628 2.21-6.413 5.428-8.363 9.61l1.813.846zm7.589-8.746c3.278-1.987 7.2-3 11.806-3v-2c-4.906 0-9.2 1.082-12.842 3.289l1.036 1.71zm11.806-3c4.604 0 8.524 1.021 11.802 3.023l1.043-1.707C33.916 2.012 29.62.92 24.714.92v2zM36.52 5.945c3.275 1.984 5.815 4.885 7.615 8.746l1.813-.845c-1.95-4.184-4.745-7.402-8.391-9.611l-1.037 1.71zm7.615 8.746c1.797 3.857 2.71 8.587 2.693 14.226l2 .005c.018-5.85-.928-10.886-2.88-15.076l-1.813.845zm2.693 14.229c0 5.673-.92 10.467-2.722 14.414l1.82.83c1.948-4.27 2.902-9.361 2.902-15.244h-2zm-2.722 14.414c-1.803 3.95-4.348 6.937-7.626 9.004l1.066 1.692c3.642-2.297 6.432-5.6 8.38-9.866l-1.82-.83zm-7.625 9.003c-3.259 2.049-7.166 3.094-11.766 3.094v2c4.911 0 9.202-1.12 12.83-3.4l-1.064-1.694zm-11.766-6.463c2.883 0 5.183-1.535 6.886-4.312l-1.705-1.046c-1.433 2.337-3.156 3.358-5.181 3.358v2zm6.885-4.31c1.735-2.817 2.518-7.087 2.501-12.648l-2 .006c.017 5.451-.768 9.26-2.204 11.592l1.703 1.05zm2.5-12.648c-.017-5.44-.81-9.61-2.532-12.342l-1.692 1.066c1.415 2.246 2.207 5.95 2.224 11.283l2-.007zM31.57 16.58c-1.692-2.715-3.985-4.204-6.856-4.204v2c2.037 0 3.75 1 5.16 3.262l1.697-1.058zm-6.856-4.204c-2.872 0-5.165 1.489-6.857 4.204l1.697 1.058c1.41-2.262 3.122-3.262 5.16-3.262v-2zm-6.857 4.204c-1.701 2.729-2.495 6.896-2.53 12.335l2 .013c.034-5.334.825-9.042 2.227-11.29l-1.697-1.058zm-2.53 12.338c-.017 5.56.758 9.828 2.473 12.643l1.708-1.04c-1.421-2.334-2.198-6.145-2.18-11.597l-2-.006zm2.477 12.65c1.72 2.774 4.027 4.308 6.91 4.308v-2c-2.027 0-3.76-1.023-5.21-3.362l-1.7 1.054zM54.501 55h-1v1h1v-1zm0-10.227l-.638-.77-.362.3v.47h1zm19.534-16.16l.637.771.002-.002-.64-.768zm4.55-4.448l-.774-.632-.001.001.776.63zm-.204-9.588l-.676.736.005.005.671-.741zm-9.588.076l.692.722.005-.005-.697-.717zm-1.815 5.063v1h1.008l-.008-1.008-1 .008zm-13.5 0h-1v1h1v-1zM84.466 3.94l-.401.916.006.003.395-.919zM91.6 9.565l-.823.568.003.004.82-.572zm1.279 14.523l.92.39.002-.004-.922-.386zm-18.64 19.253l-.64-.768-.36.3v.468h1zm0 .307h-1v1h1v-1zm20.455 0h1v-1h-1v1zm0 11.352v1h1v-1h-1zM55.5 55V44.773h-2V55h2zm-.363-9.457l19.534-16.159-1.275-1.54-19.534 16.158 1.275 1.541zm19.536-16.16c1.957-1.628 3.526-3.157 4.688-4.588l-1.552-1.26c-1.054 1.296-2.52 2.733-4.415 4.31l1.28 1.537zm4.687-4.587c1.277-1.567 1.912-3.412 1.912-5.49h-2c0 1.64-.49 3.033-1.462 4.227l1.55 1.263zm1.912-5.49c0-2.237-.712-4.104-2.22-5.47l-1.343 1.482c1.014.918 1.563 2.204 1.563 3.989h2zm-2.215-5.466c-1.459-1.338-3.316-1.976-5.484-1.976v2c1.753 0 3.1.504 4.131 1.45l1.353-1.474zm-5.484-1.976c-2.18 0-4.037.671-5.478 2.072l1.394 1.434c1.014-.985 2.344-1.506 4.085-1.506v-2zM68.1 13.931c-1.48 1.419-2.142 3.404-2.123 5.793l2-.016c-.016-2.009.533-3.399 1.507-4.333L68.1 13.931zm-1.123 4.785h-13.5v2h13.5v-2zm-12.5 1c0-3.529.79-6.509 2.33-8.983l-1.7-1.057c-1.767 2.844-2.63 6.205-2.63 10.04h2zm2.33-8.983c1.544-2.486 3.729-4.406 6.584-5.761l-.857-1.807c-3.178 1.508-5.665 3.679-7.426 6.511l1.698 1.057zm6.584-5.761C66.25 3.616 69.635 2.92 73.574 2.92v-2c-4.173 0-7.862.737-11.04 2.245l.858 1.807zM73.574 2.92c4.089 0 7.577.657 10.49 1.936l.804-1.831C81.646 1.61 77.872.92 73.575.92v2zm10.498 1.94c2.938 1.266 5.157 3.03 6.706 5.274l1.646-1.136c-1.792-2.596-4.328-4.582-7.56-5.975l-.792 1.837zm6.709 5.278c1.558 2.236 2.351 4.87 2.351 7.942h2c0-3.438-.894-6.48-2.71-9.086l-1.641 1.144zm2.351 7.942c0 1.87-.387 3.741-1.175 5.623l1.845.772c.882-2.107 1.33-4.24 1.33-6.395h-2zm-1.174 5.62c-.775 1.836-2.197 3.933-4.322 6.29l1.486 1.34c2.206-2.45 3.784-4.734 4.679-6.852l-1.843-.778zm-4.322 6.29c-2.12 2.354-5.156 5.183-9.127 8.493l1.28 1.536c4.007-3.338 7.124-6.236 9.334-8.69l-1.487-1.338zm-9.127 8.493l-4.909 4.09 1.28 1.537 4.91-4.09-1.28-1.537zM73.24 43.34v.307h2v-.307h-2zm1 1.307h20.455v-2H74.239v2zm19.455-1V55h2V43.648h-2zm1 10.352H54.5v2h40.193v-2z" fill="#0439AB"/></svg>