<svg width="101" height="58" fill="none" xmlns="http://www.w3.org/2000/svg"><path d="M24.71 56.432l-.004 1h.004v-1zM4.409 14.244l-.907-.422-.001.003.908.42zm7.977-9.179l-.518-.855-.002.001.52.854zm24.648.026l-.522.853.003.002.519-.855zm10.79 23.83l-1-.003v.003h1zM37.007 53.184l.532.846h.001l-.533-.846zM30.744 41.04l-.852-.525v.002l.852.523zm-.026-23.932l-.848.529.002.004.846-.533zM16.323 28.921l-1-.007v.003l1 .003zM18.65 41.04l-.854.52.004.007.85-.527zm6.063 14.392c-4.599-.017-8.517-1.078-11.794-3.144l-1.067 1.691c3.644 2.298 7.942 3.435 12.854 3.453l.007-2zM12.92 52.288c-3.278-2.068-5.823-5.054-7.626-9.004l-1.82.83c1.948 4.266 4.738 7.57 8.38 9.865l1.066-1.691zm-7.626-9.004c-1.801-3.947-2.714-8.723-2.697-14.36l-2-.006c-.017 5.85.929 10.926 2.877 15.196l1.82-.83zm-2.697-14.36c.017-5.66.938-10.401 2.72-14.26l-1.815-.839C1.567 18.011.614 23.054.596 28.918l2 .005zm2.72-14.257c1.8-3.863 4.332-6.764 7.59-8.748l-1.04-1.708c-3.629 2.21-6.414 5.428-8.364 9.61l1.813.846zm7.588-8.746c3.279-1.987 7.2-3 11.806-3v-2c-4.906 0-9.2 1.082-12.842 3.289l1.036 1.71zm11.806-3c4.604 0 8.524 1.021 11.802 3.023l1.043-1.707C33.912 2.012 29.617.92 24.71.92v2zm11.805 3.025c3.275 1.984 5.815 4.885 7.615 8.746l1.813-.845c-1.95-4.184-4.745-7.402-8.391-9.611l-1.037 1.71zm7.615 8.746c1.798 3.857 2.71 8.587 2.693 14.226l2 .005c.018-5.85-.928-10.886-2.88-15.076l-1.813.845zm2.693 14.229c0 5.673-.92 10.467-2.722 14.414l1.82.83c1.948-4.27 2.902-9.361 2.902-15.244h-2zm-2.722 14.414c-1.803 3.95-4.348 6.937-7.626 9.004l1.066 1.692c3.642-2.297 6.433-5.6 8.38-9.866l-1.82-.83zm-7.625 9.003c-3.259 2.049-7.166 3.094-11.766 3.094v2c4.911 0 9.202-1.12 12.83-3.4l-1.064-1.694zM24.71 45.875c2.883 0 5.183-1.535 6.886-4.312l-1.705-1.046c-1.433 2.337-3.155 3.358-5.181 3.358v2zm6.885-4.31c1.735-2.817 2.518-7.087 2.501-12.648l-2 .006c.017 5.451-.767 9.26-2.204 11.592l1.703 1.05zm2.501-12.648c-.017-5.44-.81-9.61-2.532-12.342l-1.692 1.066c1.415 2.246 2.207 5.95 2.224 11.283l2-.007zm-2.53-12.338c-1.691-2.715-3.985-4.204-6.856-4.204v2c2.037 0 3.75 1 5.16 3.262l1.697-1.058zm-6.856-4.204c-2.872 0-5.165 1.489-6.857 4.204l1.697 1.058c1.41-2.262 3.122-3.262 5.16-3.262v-2zm-6.857 4.204c-1.701 2.729-2.495 6.896-2.53 12.335l2 .013c.034-5.334.825-9.042 2.227-11.29l-1.697-1.058zm-2.53 12.338c-.017 5.56.758 9.828 2.473 12.643l1.708-1.04c-1.421-2.334-2.198-6.145-2.18-11.597l-2-.006zm2.477 12.65c1.72 2.774 4.027 4.308 6.91 4.308v-2c-2.027 0-3.76-1.023-5.21-3.362l-1.7 1.054zm36.185 5.251h-1v1h1v-1zm0-11.045l-.843-.537-.157.246v.29h1zM75.054 2.636v-1h-.55l-.294.464.844.536zm18 0h1v-1h-1v1zm0 33.137h-1v1h1v-1zm6.034 0h1v-1h-1v1zm0 11.045v1h1v-1h-1zm-6.034 0v-1h-1v1h1zm0 8.182v1h1v-1h-1zM79.45 55h-1v1h1v-1zm0-8.182h1v-1h-1v1zm.307-11.045v1h1v-1h-1zm0-18.41h1v-1h-1v1zm-.409 0v-1h-.552l-.294.467.846.534zm-11.352 18l-.846-.533-.154.245v.289h1zm0 .41h-1v1h1v-1zM54.985 46.818V35.773h-2v11.045h2zM54.83 36.31L75.897 3.173 74.21 2.1 53.142 35.236l1.687 1.073zM75.053 3.636h18v-2h-18v2zm17-1v33.137h2V2.636h-2zm1 34.137h6.035v-2h-6.034v2zm5.035-1v11.045h2V35.773h-2zm1 10.045h-6.034v2h6.034v-2zm-7.034 1V55h2v-8.182h-2zm1 7.182H79.45v2h13.603v-2zM80.45 55v-8.182h-2V55h2zm-1-9.182H53.985v2h25.466v-2zm1.307-10.045v-18.41h-2v18.41h2zm-1-19.41h-.409v2h.41v-2zm-1.255.467l-11.352 18 1.692 1.067 11.352-18-1.692-1.067zM66.997 35.364v.409h2v-.41h-2zm1 1.409h11.761v-2H67.997v2z" fill="#0439AB"/></svg>