<svg width="81" height="57" fill="none" xmlns="http://www.w3.org/2000/svg"><path d="M24.114 55.511l-.004 1h.004v-1zM3.813 13.324l-.907-.423-.001.004.908.419zm7.977-9.18l-.518-.854h-.002l.52.855zm24.648.026l-.522.854.004.002.518-.856zM47.228 28l-1-.003V28h1zM36.411 52.264l.532.847.002-.001-.534-.846zM30.148 40.12l-.851-.524-.002.001.853.523zm-.026-23.931l-.848.528.002.005.846-.534zM15.727 28l-1-.006v.003l1 .003zm2.327 12.12l-.854.52.004.006.85-.527zm6.064 14.391c-4.6-.016-8.517-1.077-11.795-3.144l-1.066 1.692c3.643 2.297 7.941 3.435 12.853 3.452l.008-2zm-11.795-3.144C9.045 49.3 6.5 46.313 4.697 42.363l-1.82.83c1.948 4.267 4.738 7.57 8.38 9.866l1.066-1.692zm-7.626-9.004C2.896 38.417 1.984 33.641 2 28.003l-2-.006c-.017 5.85.929 10.927 2.877 15.197l1.82-.83zM2 28.003c.017-5.659.938-10.4 2.72-14.26l-1.815-.838C.97 17.09.018 22.133 0 27.997l2 .006zm2.72-14.257C6.52 9.884 9.051 6.983 12.31 5l-1.04-1.708C7.64 5.5 4.856 8.719 2.906 12.9l1.813.845zM12.307 5c3.279-1.986 7.2-3 11.806-3V0c-4.906 0-9.2 1.083-12.842 3.29L12.308 5zm11.806-3c4.604 0 8.525 1.022 11.802 3.024l1.043-1.707C33.316 1.092 29.021 0 24.114 0v2zm11.805 3.026c3.275 1.984 5.815 4.885 7.615 8.746l1.813-.845c-1.95-4.184-4.745-7.403-8.391-9.612l-1.037 1.71zm7.615 8.746c1.798 3.856 2.71 8.586 2.694 14.225l2 .006c.017-5.85-.928-10.887-2.881-15.076l-1.813.845zM46.228 28c0 5.674-.921 10.468-2.723 14.414l1.82.83c1.948-4.269 2.902-9.361 2.902-15.244h-2zm-2.723 14.414c-1.803 3.95-4.348 6.937-7.626 9.004l1.067 1.692c3.641-2.296 6.432-5.6 8.379-9.865l-1.82-.83zm-7.625 9.004c-3.258 2.048-7.166 3.093-11.766 3.093v2c4.912 0 9.202-1.12 12.83-3.4l-1.064-1.693zm-11.766-6.463c2.883 0 5.183-1.536 6.886-4.313l-1.704-1.046c-1.434 2.337-3.156 3.359-5.182 3.359v2zm6.885-4.311c1.735-2.816 2.518-7.087 2.501-12.647l-2 .006c.017 5.45-.767 9.26-2.203 11.592l1.702 1.049zM33.5 27.997c-.017-5.44-.81-9.611-2.532-12.343l-1.692 1.067c1.416 2.245 2.207 5.95 2.224 11.282l2-.006zm-2.529-12.338c-1.692-2.716-3.986-4.205-6.857-4.205v2c2.037 0 3.75 1 5.16 3.262l1.697-1.058zm-6.857-4.205c-2.872 0-5.165 1.49-6.857 4.204l1.697 1.058c1.41-2.262 3.122-3.262 5.16-3.262v-2zm-6.857 4.204c-1.701 2.73-2.495 6.897-2.53 12.336l2 .012c.034-5.333.826-9.041 2.227-11.29l-1.697-1.058zm-2.53 12.339c-.017 5.56.758 9.828 2.473 12.643l1.708-1.041c-1.421-2.333-2.197-6.144-2.18-11.596l-2-.006zm2.477 12.65c1.72 2.773 4.028 4.308 6.91 4.308v-2c-2.027 0-3.76-1.023-5.21-3.363l-1.7 1.054zM79.571 1.715h1v-1h-1v1zm0 52.364v1h1v-1h-1zm-14.216 0h-1v1h1v-1zm0-39.273h1v-1h-1v1zm-.306 0v-1h-.277l-.237.142.514.858zm-11.455 6.852h-1v1.764l1.513-.906-.513-.858zm0-12.068l-.522-.853-.478.292v.561h1zM66.48 1.716v-1h-.28l-.24.147.521.853zm12.091 0V54.08h2V1.716h-2zm1 51.364H65.355v2h14.216v-2zm-13.216 1V14.806h-2V54.08h2zm-1-40.273h-.306v2h.306v-2zm-.82.142L53.081 20.8l1.026 1.716 11.455-6.852-1.027-1.716zm-9.941 7.71V9.591h-2v12.068h2zm-.479-11.215L67.002 2.57 65.959.863 53.072 8.738l1.043 1.706zM66.48 2.716h13.091v-2h-13.09v2z" fill="#0439AB"/></svg>