<svg width="98" height="58" fill="none" xmlns="http://www.w3.org/2000/svg"><path d="M24.694 56.432l-.003 1h.003v-1zm-20.3-42.188l-.907-.422-.002.003.908.42zm7.976-9.179l-.518-.855-.002.001.52.854zm24.648.026l-.521.853.003.002.518-.855zm10.79 23.83l-1-.003v.003h1zM36.992 53.184l.533.846-.533-.846zM30.728 41.04l-.851-.525-.001.002.852.523zm-.025-23.932l-.849.529.003.004.846-.533zM16.308 28.921l-1-.007v.003l1 .003zm2.326 12.119l-.854.52.005.007.85-.527zm6.064 14.392c-4.6-.017-8.517-1.078-11.794-3.144l-1.067 1.691c3.643 2.298 7.941 3.435 12.854 3.453l.007-2zm-11.794-3.144c-3.279-2.068-5.824-5.054-7.627-9.004l-1.82.83c1.948 4.266 4.738 7.57 8.38 9.865l1.067-1.691zm-7.627-9.004c-1.8-3.947-2.713-8.723-2.696-14.36l-2-.006c-.018 5.85.928 10.926 2.877 15.196l1.82-.83zm-2.696-14.36c.016-5.66.937-10.401 2.72-14.26l-1.816-.839C1.552 18.011.598 23.054.581 28.918l2 .005zm2.718-14.257c1.8-3.863 4.334-6.764 7.591-8.748l-1.04-1.708c-3.628 2.21-6.414 5.428-8.363 9.61l1.812.846zm7.59-8.746c3.278-1.987 7.2-3 11.805-3v-2c-4.906 0-9.2 1.082-12.842 3.289l1.037 1.71zm11.805-3c4.604 0 8.525 1.021 11.803 3.023l1.042-1.707C33.897 2.012 29.601.92 24.694.92v2zM36.5 5.945c3.274 1.984 5.815 4.885 7.614 8.746l1.813-.845c-1.95-4.184-4.745-7.402-8.39-9.611L36.5 5.946zm7.614 8.746c1.798 3.857 2.71 8.587 2.694 14.226l2 .005c.017-5.85-.928-10.886-2.88-15.076l-1.813.845zm2.694 14.229c0 5.673-.921 10.467-2.722 14.414l1.819.83c1.949-4.27 2.903-9.361 2.903-15.244h-2zm-2.722 14.414c-1.803 3.95-4.348 6.937-7.627 9.004l1.067 1.692c3.642-2.297 6.432-5.6 8.379-9.866l-1.82-.83zm-7.626 9.003c-3.258 2.049-7.166 3.094-11.766 3.094v2c4.912 0 9.203-1.12 12.83-3.4l-1.064-1.694zm-11.766-6.463c2.884 0 5.184-1.535 6.887-4.312l-1.705-1.046c-1.433 2.337-3.156 3.358-5.182 3.358v2zm6.886-4.31c1.734-2.817 2.518-7.087 2.5-12.648l-2 .006c.017 5.451-.767 9.26-2.203 11.592l1.703 1.05zm2.5-12.648c-.017-5.44-.81-9.61-2.531-12.342l-1.692 1.066c1.415 2.246 2.207 5.95 2.224 11.283l2-.007zM31.552 16.58c-1.692-2.715-3.985-4.204-6.857-4.204v2c2.038 0 3.75 1 5.16 3.262l1.697-1.058zm-6.857-4.204c-2.871 0-5.165 1.489-6.857 4.204l1.697 1.058c1.41-2.262 3.123-3.262 5.16-3.262v-2zm-6.857 4.204c-1.7 2.729-2.495 6.896-2.53 12.335l2 .013c.035-5.334.826-9.042 2.227-11.29l-1.697-1.058zm-2.53 12.338c-.016 5.56.759 9.828 2.473 12.643l1.708-1.04c-1.421-2.334-2.197-6.145-2.18-11.597l-2-.006zm2.478 12.65c1.72 2.774 4.027 4.308 6.91 4.308v-2c-2.028 0-3.76-1.023-5.21-3.362l-1.7 1.054zM63.94 53.594l-.41.912.006.003.404-.915zM53.663 39.045v-1h-1.005l.005 1.006 1-.006zm14.318 0l1-.022-.022-.978h-.978v1zm2.02 3.759l-.602.799.007.005.595-.804zm9.87-.077l.634.773.007-.005-.642-.768zm1.815-3.988l-1-.022v.043l1-.021zm-2.148-3.887l-.577.817.011.008.566-.825zm-10.943-1.534h-1v1h1v-1zm0-9.818v-1h-1v1h1zm10.508-1.509l.604.798.001-.001-.605-.797zm1.969-3.912l-1-.022v.044l1-.021zm-1.662-3.732l-.66.75.006.006.006.005.648-.761zm-9.204.05l.628.778h.001l-.63-.777zm-1.918 3.887v1h.979l.02-.978-1-.022zm-13.602 0l-1-.005-.006 1.005h1.006v-1zm2.633-8.489l-.813-.581-.003.003.816.578zM85.291 3.89l-.405.915h.002l.403-.915zm6.98 5.42l-.81.588.006.007.804-.594zm2.505 7.85l-1-.006v.018l1-.012zm-3.016 7.21l-.676-.737-.003.003.678.734zm-7.722 3.324l-.109-.994-.891.098v.896h1zm0 .41h-1V29l.892.097.108-.994zm9.537 3.886l-.707.707.003.003.704-.71zm3.145 7.977l-1-.01v.015l1-.005zm-2.762 8.156l-.787-.617-.002.004.79.613zm-7.696 5.574l-.379-.925h-.001l.38.925zm-11.326 1.02c-4.01 0-7.534-.688-10.59-2.037l-.809 1.83c3.353 1.48 7.159 2.207 11.399 2.207v-2zM64.35 52.682c-3.05-1.37-5.41-3.235-7.118-5.583l-1.617 1.177c1.939 2.664 4.59 4.736 7.916 6.23l.82-1.824zm-7.118-5.583c-1.694-2.327-2.554-5.002-2.57-8.059l-2 .01c.018 3.455.999 6.542 2.953 9.226l1.617-1.177zm-3.57-7.053H67.98v-2H53.663v2zm13.318-.978c.042 1.851.885 3.38 2.418 4.535l1.204-1.598c-1.092-.822-1.596-1.799-1.622-2.982l-2 .045zm2.425 4.54c1.524 1.128 3.427 1.653 5.632 1.653v-2c-1.886 0-3.341-.446-4.442-1.26l-1.19 1.607zm5.632 1.653c2.154 0 4.006-.56 5.467-1.761l-1.27-1.545c-1.027.844-2.397 1.306-4.197 1.306v2zm5.474-1.766c1.477-1.235 2.214-2.854 2.173-4.777l-2 .042c.028 1.315-.444 2.355-1.456 3.2l1.282 1.535zm2.173-4.735c.043-1.968-.877-3.563-2.581-4.732l-1.132 1.649c1.228.842 1.74 1.837 1.714 3.04l2 .043zm-2.57-4.725c-1.662-1.172-3.756-1.717-6.202-1.717v2c2.156 0 3.812.479 5.048 1.351l1.154-1.634zm-6.202-1.717h-5.318v2h5.318v-2zm-4.318 1V23.5h-2v9.818h2zm-1-8.818h5.318v-2h-5.318v2zm5.318 0c2.287 0 4.247-.541 5.794-1.711L78.5 21.194c-1.113.842-2.613 1.306-4.587 1.306v2zm5.795-1.712c1.582-1.201 2.405-2.8 2.364-4.73l-2 .043c.027 1.241-.462 2.25-1.574 3.094l1.21 1.593zm2.364-4.686c.04-1.814-.64-3.348-2.014-4.517l-1.296 1.523c.91.774 1.338 1.729 1.31 2.95l2 .044zm-2.002-4.507c-1.342-1.179-3.05-1.731-5.032-1.731v2c1.597 0 2.804.436 3.712 1.234l1.32-1.503zm-5.032-1.731c-2.14 0-3.988.562-5.462 1.757l1.26 1.553c1.048-.85 2.422-1.31 4.202-1.31v-2zm-5.461 1.756c-1.471 1.189-2.248 2.76-2.289 4.643l2 .043c.027-1.288.528-2.308 1.546-3.13l-1.257-1.556zm-1.29 3.664H54.687v2h13.602v-2zM55.687 18.29c.016-3.013.837-5.64 2.45-7.916l-1.633-1.156c-1.865 2.634-2.8 5.666-2.817 9.062l2 .01zm2.447-7.912c1.643-2.297 3.902-4.117 6.813-5.45l-.833-1.82c-3.192 1.463-5.739 3.495-7.607 6.107l1.627 1.163zm6.813-5.45c2.9-1.329 6.256-2.007 10.092-2.007v-2c-4.073 0-7.722.72-10.925 2.188l.833 1.818zM75.038 2.92c3.756 0 7.032.637 9.848 1.884l.81-1.83C82.58 1.597 79.02.92 75.037.92v2zm9.85 1.884c2.845 1.252 5.022 2.955 6.574 5.093l1.618-1.175c-1.789-2.464-4.266-4.375-7.386-5.748l-.806 1.83zm6.579 5.1c1.554 2.103 2.325 4.507 2.31 7.25l2 .01c.018-3.155-.88-5.984-2.702-8.449l-1.608 1.189zm2.31 7.267c.03 2.665-.87 4.79-2.693 6.461l1.351 1.474c2.268-2.079 3.379-4.76 3.341-7.959l-2 .024zm-2.696 6.464c-1.85 1.71-4.215 2.743-7.152 3.064l.218 1.988c3.302-.36 6.085-1.544 8.291-3.583l-1.357-1.469zm-8.043 4.058v.41h2v-.41h-2zm.892 1.403c4.092.446 7.023 1.685 8.938 3.6l1.414-1.414c-2.347-2.347-5.773-3.699-10.136-4.174l-.216 1.988zm8.94 3.603c1.925 1.909 2.881 4.302 2.85 7.256l2 .022c.036-3.455-1.104-6.38-3.44-8.698l-1.41 1.42zm2.85 7.273c.016 2.847-.833 5.345-2.549 7.533l1.574 1.234c2-2.55 2.993-5.49 2.975-8.779l-2 .011zm-2.551 7.537c-1.716 2.207-4.128 3.969-7.285 5.262l.757 1.85c3.422-1.4 6.14-3.354 8.107-5.885l-1.58-1.227zm-7.287 5.262c-3.13 1.288-6.772 1.945-10.946 1.945v2c4.382 0 8.291-.69 11.707-2.095l-.761-1.85z" fill="#0439AB"/></svg>